<svg xmlns="http://www.w3.org/2000/svg" viewBox="0 0 18 36">
  <defs>
    <linearGradient id="m" x1="0" x2="1">
      <stop offset="0" stop-color="#444646"/>
      <stop offset=".28" stop-color="#dddcd5"/>
      <stop offset=".58" stop-color="#777a79"/>
      <stop offset="1" stop-color="#ecebe4"/>
    </linearGradient>
  </defs>
  <path d="M11.3 33C6.5 33 3 29.8 3 24.9V8.7C3 4.7 5.5 2 9 2s6 2.5 6 6v15.2c0 3.4-2.2 5.7-5.1 5.7s-5-2.2-5-5V10.6c0-1.8 1.1-3 2.7-3s2.8 1.2 2.8 3v11.6" fill="none" stroke="#242625" stroke-width="3.4" stroke-linecap="round" stroke-linejoin="round" opacity=".72"/>
  <path d="M11.3 33C6.5 33 3 29.8 3 24.9V8.7C3 4.7 5.5 2 9 2s6 2.5 6 6v15.2c0 3.4-2.2 5.7-5.1 5.7s-5-2.2-5-5V10.6c0-1.8 1.1-3 2.7-3s2.8 1.2 2.8 3v11.6" fill="none" stroke="url(#m)" stroke-width="2.1" stroke-linecap="round" stroke-linejoin="round"/>
</svg>
